<?xml version="1.0" encoding="iso-8859-1"?>
<!-- Uploaded to: SVG Repo, www.svgrepo.com, Generator: SVG Repo Mixer Tools -->
<svg version="1.1" id="Layer_1" xmlns="http://www.w3.org/2000/svg" xmlns:xlink="http://www.w3.org/1999/xlink" 
	 viewBox="0 0 512.001 512.001" xml:space="preserve">
<path style="fill:#FFB819;" d="M412.692,258.929H270.88c0,0-1.651-127.478-3.112-135.964l-9.94-89.236
	c-1.378-13.159-11.788-24.034-25.475-25.475c-15.724-1.655-29.816,9.751-31.472,25.475l-4.161,34.345
	c-0.798-0.024-1.595-0.062-2.399-0.062c0,0-34.46-3.098-48.881,5.264c-5.699,3.304-76.75,33.619-90.891,46.677
	c-0.001,0.001-0.002,0.001-0.002,0.002c-9.506,9.347-15.405,22.346-15.405,36.726c0,28.458,23.065,51.521,51.519,51.521h27.103
	v269.75c0,14.274,11.681,25.953,25.955,25.953h59.684c14.272,0,25.952-11.679,25.952-25.953v-66.902h131.915v66.902
	c0,14.274,11.681,25.953,25.955,25.953h59.681c14.275,0,25.955-11.679,25.955-25.953V319.094
	C472.859,285.866,445.922,258.929,412.692,258.929z"/>
<g>
	<rect x="117.758" y="411.053" style="fill:#00BCB4;" width="111.596" height="50.721"/>
	<rect x="361.271" y="411.053" style="fill:#00BCB4;" width="111.585" height="50.721"/>
</g>
<rect x="117.758" y="360.332" style="fill:#006098;" width="355.098" height="50.721"/>
<path style="fill:#D85C72;" d="M472.109,309.605H117.764v50.723h355.095v-41.234C472.859,315.864,472.595,312.697,472.109,309.605z"
	/>
<g>
	<path style="fill:#00BCB4;" d="M412.692,258.929H117.764v50.675h354.345C467.555,280.885,442.694,258.929,412.692,258.929z"/>
	<path style="fill:#00BCB4;" d="M269.117,157.481H39.162c0.428,28.087,23.313,50.723,51.5,50.723h179.455
		C269.833,191.315,269.488,172.902,269.117,157.481z"/>
</g>
<path style="fill:#006098;" d="M267.767,122.965l-1.805-16.209H75.515c-9.47,5.062-17.218,9.736-20.967,13.198
	c-0.001,0.001-0.002,0.001-0.002,0.002c-9.506,9.347-15.405,22.346-15.405,36.726c0,0.268,0.016,0.531,0.021,0.798h229.957
	C268.686,139.49,268.218,125.58,267.767,122.965z"/>
<path style="fill:#D85C72;" d="M260.312,56.032h-62.134l-1.459,12.041c-0.798-0.024-1.595-0.062-2.399-0.062
	c0,0-34.46-3.098-48.881,5.264c-4.188,2.428-43.672,19.445-69.924,33.479h190.447L260.312,56.032z"/>
<path style="fill:#022A3A;" d="M412.692,250.835H278.867c-0.435-31.943-1.731-118.974-3.068-128.88l-9.922-89.07
	c-1.795-17.132-15.537-30.877-32.677-32.681C231.913,0.069,230.608,0,229.32,0c-18.808,0-34.479,14.102-36.481,32.816l-3.245,26.783
	c-2.609-0.127-5.994-0.241-9.798-0.241c-17.575,0-30.5,2.328-38.413,6.915c-1.146,0.655-7.446,3.533-13.538,6.317
	c-32.418,14.813-67.892,31.438-78.708,41.344c-0.113,0.103-0.223,0.207-0.331,0.315c-11.452,11.293-17.759,26.36-17.759,42.434
	c0,32.872,26.743,59.615,59.613,59.615h19.009v261.656c0,18.774,15.274,34.047,34.049,34.047h59.684
	c18.773,0,34.045-15.273,34.045-34.047v-58.808h115.727v58.808c0,18.774,15.273,34.047,34.049,34.047h59.681
	c18.774,0,34.049-15.273,34.049-34.047v-158.86C480.953,281.456,450.331,250.835,412.692,250.835z M412.692,267.023
	c22.545,0,41.782,14.404,49.01,34.488H125.856v-34.488H412.692z M262.678,250.835H125.857v-34.538h41.58v13.92h16.187v-13.92h78.534
	C262.354,228.283,262.531,240.103,262.678,250.835z M208.916,34.703c0.005-0.042,0.01-0.084,0.015-0.127
	c1.103-10.483,9.868-18.388,20.389-18.388c0.724,0,1.459,0.039,2.184,0.115c9.585,1.009,17.27,8.693,18.279,18.322l1.484,13.315
	h-43.954L208.916,34.703z M134.574,87.314c9.144-4.179,13.258-6.066,14.928-7.035c5.188-3.009,16.23-4.733,30.295-4.733
	c7.779,0,13.744,0.523,13.8,0.529c0.745,0.068,1.492,0.043,2.234,0.069l0.644,0.022c4.166,0.128,7.778-2.959,8.28-7.116l0.597-4.921
	h23.128v13.919h16.187V64.126h8.403l3.847,34.536h-146.86C119.542,94.183,128.384,90.141,134.574,87.314z M60.128,125.82
	c3.052-2.779,9.465-6.666,17.435-10.97h17.52v13.92h16.187v-13.92H258.72l1.004,9.011c0.018,0.16,0.036,0.292,0.064,0.45
	c0.317,2.089,0.673,11.566,1.031,25.076H47.854C49.351,140.489,53.572,132.303,60.128,125.82z M90.66,200.111
	c-20.898,0-38.392-14.84-42.507-34.535h189.12v13.92h16.187v-13.92h7.745c0.234,10.598,0.464,22.433,0.678,34.535H90.66z
	 M221.261,477.954c0,9.847-8.011,17.859-17.858,17.859h-59.684c-9.848,0-17.861-8.012-17.861-17.859v-8.084h39.608v13.92h16.187
	v-13.92h39.609v8.084H221.261z M221.261,453.682h-95.403v-34.535h95.403V453.682z M464.765,477.954
	c0,9.847-8.013,17.859-17.861,17.859h-59.681c-9.848,0-17.861-8.012-17.861-17.859v-8.084h95.402v8.084H464.765z M464.765,453.682
	h-95.402v-34.535h66.529v13.92h16.187v-13.92h12.686V453.682z M464.765,402.958H125.857v-34.536h109.202v13.92h16.187v-13.92h213.52
	v34.536H464.765z M464.765,352.234H125.857v-34.535h15.884v13.92h16.187v-13.92h222.514v13.92h16.187v-13.92h68.099
	c0.013,0.465,0.036,0.928,0.036,1.395L464.765,352.234L464.765,352.234z M180.331,119.43c-7.007,0-12.687,5.68-12.687,12.689
	c0,7.007,5.681,12.688,12.687,12.688c7.009,0,12.691-5.681,12.691-12.688C193.022,125.109,187.34,119.43,180.331,119.43z"/>
</svg>